<?xml version="1.0" encoding="UTF-8" standalone="no"?>
<!DOCTYPE svg PUBLIC "-//W3C//DTD SVG 1.1//EN"
 "http://www.w3.org/Graphics/SVG/1.1/DTD/svg11.dtd">
<!-- Generated by graphviz version 2.36.0 (20140111.2315)
 -->
<!-- Title: controllers_diagram Pages: 1 -->
<svg width="1151pt" height="1107pt"
 viewBox="0.00 0.00 1151.38 1106.69" xmlns="http://www.w3.org/2000/svg" xmlns:xlink="http://www.w3.org/1999/xlink">
<g id="graph0" class="graph" transform="scale(1 1) rotate(0) translate(4 1102.69)">
<title>controllers_diagram</title>
<polygon fill="white" stroke="none" points="-4,4 -4,-1102.69 1147.38,-1102.69 1147.38,4 -4,4"/>
<!-- _diagram_info -->
<g id="node1" class="node"><title>_diagram_info</title>
<text text-anchor="start" x="944" y="-370.6" font-family="Times,serif" font-size="13.00">Controllers diagram</text>
<text text-anchor="start" x="944" y="-357.6" font-family="Times,serif" font-size="13.00">Date: Mar 17 2014 &#45; 22:05</text>
<text text-anchor="start" x="944" y="-344.6" font-family="Times,serif" font-size="13.00">Migration version: 20140225165907</text>
<text text-anchor="start" x="944" y="-331.6" font-family="Times,serif" font-size="13.00">Generated by RailRoady 1.1.1</text>
<text text-anchor="start" x="944" y="-318.6" font-family="Times,serif" font-size="13.00">http://railroady.prestonlee.com</text>
</g>
<!-- ApplicationController -->
<g id="node2" class="node"><title>ApplicationController</title>
<path fill="none" stroke="black" d="M349.08,-444.765C349.08,-444.765 485.708,-444.765 485.708,-444.765 491.708,-444.765 497.708,-450.765 497.708,-456.765 497.708,-456.765 497.708,-564.765 497.708,-564.765 497.708,-570.765 491.708,-576.765 485.708,-576.765 485.708,-576.765 349.08,-576.765 349.08,-576.765 343.08,-576.765 337.08,-570.765 337.08,-564.765 337.08,-564.765 337.08,-456.765 337.08,-456.765 337.08,-450.765 343.08,-444.765 349.08,-444.765"/>
<text text-anchor="middle" x="417.394" y="-561.565" font-family="Times,serif" font-size="14.00">ApplicationController</text>
<polyline fill="none" stroke="black" points="337.08,-554.765 497.708,-554.765 "/>
<text text-anchor="start" x="345.08" y="-539.565" font-family="Times,serif" font-size="14.00">redirect_if_not_signed_in</text>
<text text-anchor="start" x="345.08" y="-525.565" font-family="Times,serif" font-size="14.00">redirect_if_unauthorized</text>
<text text-anchor="start" x="345.08" y="-511.565" font-family="Times,serif" font-size="14.00">store_location</text>
<polyline fill="none" stroke="black" points="337.08,-504.765 497.708,-504.765 "/>
<polyline fill="none" stroke="black" points="337.08,-480.765 497.708,-480.765 "/>
<text text-anchor="start" x="345.08" y="-465.565" font-family="Times,serif" font-size="14.00">_layout</text>
<text text-anchor="start" x="345.08" y="-451.565" font-family="Times,serif" font-size="14.00">current_user</text>
</g>
<!-- BookmarksController -->
<g id="node3" class="node"><title>BookmarksController</title>
<path fill="none" stroke="black" d="M676.572,-604.233C676.572,-604.233 790.668,-604.233 790.668,-604.233 796.668,-604.233 802.668,-610.233 802.668,-616.233 802.668,-616.233 802.668,-696.233 802.668,-696.233 802.668,-702.233 796.668,-708.233 790.668,-708.233 790.668,-708.233 676.572,-708.233 676.572,-708.233 670.572,-708.233 664.572,-702.233 664.572,-696.233 664.572,-696.233 664.572,-616.233 664.572,-616.233 664.572,-610.233 670.572,-604.233 676.572,-604.233"/>
<text text-anchor="middle" x="733.62" y="-693.033" font-family="Times,serif" font-size="14.00">BookmarksController</text>
<polyline fill="none" stroke="black" points="664.572,-686.233 802.668,-686.233 "/>
<text text-anchor="start" x="672.572" y="-671.033" font-family="Times,serif" font-size="14.00">make_bookmark</text>
<text text-anchor="start" x="672.572" y="-657.033" font-family="Times,serif" font-size="14.00">unmake_bookmark</text>
<polyline fill="none" stroke="black" points="664.572,-650.233 802.668,-650.233 "/>
<polyline fill="none" stroke="black" points="664.572,-626.233 802.668,-626.233 "/>
<text text-anchor="start" x="672.572" y="-611.033" font-family="Times,serif" font-size="14.00">_layout</text>
</g>
<!-- ApplicationController&#45;&gt;BookmarksController -->
<g id="edge1" class="edge"><title>ApplicationController&#45;&gt;BookmarksController</title>
<path fill="none" stroke="black" d="M498.009,-547.849C549.429,-571.503 615.376,-601.839 664.417,-624.398"/>
</g>
<!-- CommentsController -->
<g id="node4" class="node"><title>CommentsController</title>
<path fill="none" stroke="black" d="M260.38,-80.5235C260.38,-80.5235 370.594,-80.5235 370.594,-80.5235 376.594,-80.5235 382.594,-86.5235 382.594,-92.5235 382.594,-92.5235 382.594,-200.524 382.594,-200.524 382.594,-206.524 376.594,-212.524 370.594,-212.524 370.594,-212.524 260.38,-212.524 260.38,-212.524 254.38,-212.524 248.38,-206.524 248.38,-200.524 248.38,-200.524 248.38,-92.5235 248.38,-92.5235 248.38,-86.5235 254.38,-80.5235 260.38,-80.5235"/>
<text text-anchor="middle" x="315.487" y="-197.324" font-family="Times,serif" font-size="14.00">CommentsController</text>
<polyline fill="none" stroke="black" points="248.38,-190.524 382.594,-190.524 "/>
<text text-anchor="start" x="256.38" y="-175.324" font-family="Times,serif" font-size="14.00">delete</text>
<text text-anchor="start" x="256.38" y="-161.324" font-family="Times,serif" font-size="14.00">save</text>
<polyline fill="none" stroke="black" points="248.38,-154.524 382.594,-154.524 "/>
<polyline fill="none" stroke="black" points="248.38,-130.524 382.594,-130.524 "/>
<text text-anchor="start" x="256.38" y="-115.324" font-family="Times,serif" font-size="14.00">_layout</text>
<text text-anchor="start" x="256.38" y="-101.324" font-family="Times,serif" font-size="14.00">set_comment</text>
<text text-anchor="start" x="256.38" y="-87.3235" font-family="Times,serif" font-size="14.00">set_resource</text>
</g>
<!-- ApplicationController&#45;&gt;CommentsController -->
<g id="edge2" class="edge"><title>ApplicationController&#45;&gt;CommentsController</title>
<path fill="none" stroke="black" d="M398.821,-444.381C380.422,-378.616 352.403,-278.471 334.018,-212.758"/>
</g>
<!-- PagesController -->
<g id="node5" class="node"><title>PagesController</title>
<path fill="none" stroke="black" d="M12,-888.414C12,-888.414 168.842,-888.414 168.842,-888.414 174.842,-888.414 180.842,-894.414 180.842,-900.414 180.842,-900.414 180.842,-994.414 180.842,-994.414 180.842,-1000.41 174.842,-1006.41 168.842,-1006.41 168.842,-1006.41 12,-1006.41 12,-1006.41 6,-1006.41 0,-1000.41 0,-994.414 0,-994.414 0,-900.414 0,-900.414 0,-894.414 6,-888.414 12,-888.414"/>
<text text-anchor="middle" x="90.4209" y="-991.214" font-family="Times,serif" font-size="14.00">PagesController</text>
<polyline fill="none" stroke="black" points="0,-984.414 180.842,-984.414 "/>
<text text-anchor="start" x="8" y="-969.214" font-family="Times,serif" font-size="14.00">aboutus</text>
<text text-anchor="start" x="8" y="-955.214" font-family="Times,serif" font-size="14.00">landing</text>
<text text-anchor="start" x="8" y="-941.214" font-family="Times,serif" font-size="14.00">value_proposition_categories</text>
<polyline fill="none" stroke="black" points="0,-934.414 180.842,-934.414 "/>
<polyline fill="none" stroke="black" points="0,-910.414 180.842,-910.414 "/>
<text text-anchor="start" x="8" y="-895.214" font-family="Times,serif" font-size="14.00">_layout</text>
</g>
<!-- ApplicationController&#45;&gt;PagesController -->
<g id="edge3" class="edge"><title>ApplicationController&#45;&gt;PagesController</title>
<path fill="none" stroke="black" d="M367.734,-577.082C304.313,-661.777 195.521,-807.06 134.765,-888.195"/>
</g>
<!-- ResourcesController -->
<g id="node6" class="node"><title>ResourcesController</title>
<path fill="none" stroke="black" d="M674.159,-798.192C674.159,-798.192 810.78,-798.192 810.78,-798.192 816.78,-798.192 822.78,-804.192 822.78,-810.192 822.78,-810.192 822.78,-1086.19 822.78,-1086.19 822.78,-1092.19 816.78,-1098.19 810.78,-1098.19 810.78,-1098.19 674.159,-1098.19 674.159,-1098.19 668.159,-1098.19 662.159,-1092.19 662.159,-1086.19 662.159,-1086.19 662.159,-810.192 662.159,-810.192 662.159,-804.192 668.159,-798.192 674.159,-798.192"/>
<text text-anchor="middle" x="742.469" y="-1082.99" font-family="Times,serif" font-size="14.00">ResourcesController</text>
<polyline fill="none" stroke="black" points="662.159,-1076.19 822.78,-1076.19 "/>
<text text-anchor="start" x="670.159" y="-1060.99" font-family="Times,serif" font-size="14.00">add_existing_resources</text>
<text text-anchor="start" x="670.159" y="-1046.99" font-family="Times,serif" font-size="14.00">create</text>
<text text-anchor="start" x="670.159" y="-1032.99" font-family="Times,serif" font-size="14.00">destroy</text>
<text text-anchor="start" x="670.159" y="-1018.99" font-family="Times,serif" font-size="14.00">edit</text>
<text text-anchor="start" x="670.159" y="-1004.99" font-family="Times,serif" font-size="14.00">filter</text>
<text text-anchor="start" x="670.159" y="-990.992" font-family="Times,serif" font-size="14.00">index</text>
<text text-anchor="start" x="670.159" y="-976.992" font-family="Times,serif" font-size="14.00">new</text>
<text text-anchor="start" x="670.159" y="-962.992" font-family="Times,serif" font-size="14.00">remove</text>
<text text-anchor="start" x="670.159" y="-948.992" font-family="Times,serif" font-size="14.00">reorder</text>
<text text-anchor="start" x="670.159" y="-934.992" font-family="Times,serif" font-size="14.00">show</text>
<text text-anchor="start" x="670.159" y="-920.992" font-family="Times,serif" font-size="14.00">show_existing_resources</text>
<text text-anchor="start" x="670.159" y="-906.992" font-family="Times,serif" font-size="14.00">sort</text>
<text text-anchor="start" x="670.159" y="-892.992" font-family="Times,serif" font-size="14.00">update</text>
<polyline fill="none" stroke="black" points="662.159,-886.192 822.78,-886.192 "/>
<polyline fill="none" stroke="black" points="662.159,-862.192 822.78,-862.192 "/>
<text text-anchor="start" x="670.159" y="-846.992" font-family="Times,serif" font-size="14.00">_layout</text>
<text text-anchor="start" x="670.159" y="-832.992" font-family="Times,serif" font-size="14.00">resource_params</text>
<text text-anchor="start" x="670.159" y="-818.992" font-family="Times,serif" font-size="14.00">set_resource</text>
<text text-anchor="start" x="670.159" y="-804.992" font-family="Times,serif" font-size="14.00">set_resource_associations</text>
</g>
<!-- ApplicationController&#45;&gt;ResourcesController -->
<g id="edge4" class="edge"><title>ApplicationController&#45;&gt;ResourcesController</title>
<path fill="none" stroke="black" d="M466.766,-577.2C518.541,-646.869 600.728,-757.463 661.916,-839.798"/>
</g>
<!-- SessionsController -->
<g id="node7" class="node"><title>SessionsController</title>
<path fill="none" stroke="black" d="M367.46,-834.248C367.46,-834.248 465.239,-834.248 465.239,-834.248 471.239,-834.248 477.239,-840.248 477.239,-846.248 477.239,-846.248 477.239,-940.248 477.239,-940.248 477.239,-946.248 471.239,-952.248 465.239,-952.248 465.239,-952.248 367.46,-952.248 367.46,-952.248 361.46,-952.248 355.46,-946.248 355.46,-940.248 355.46,-940.248 355.46,-846.248 355.46,-846.248 355.46,-840.248 361.46,-834.248 367.46,-834.248"/>
<text text-anchor="middle" x="416.349" y="-937.048" font-family="Times,serif" font-size="14.00">SessionsController</text>
<polyline fill="none" stroke="black" points="355.46,-930.248 477.239,-930.248 "/>
<text text-anchor="start" x="363.46" y="-915.048" font-family="Times,serif" font-size="14.00">create</text>
<text text-anchor="start" x="363.46" y="-901.048" font-family="Times,serif" font-size="14.00">destroy</text>
<text text-anchor="start" x="363.46" y="-887.048" font-family="Times,serif" font-size="14.00">new</text>
<polyline fill="none" stroke="black" points="355.46,-880.248 477.239,-880.248 "/>
<polyline fill="none" stroke="black" points="355.46,-856.248 477.239,-856.248 "/>
<text text-anchor="start" x="363.46" y="-841.048" font-family="Times,serif" font-size="14.00">_layout</text>
</g>
<!-- ApplicationController&#45;&gt;SessionsController -->
<g id="edge5" class="edge"><title>ApplicationController&#45;&gt;SessionsController</title>
<path fill="none" stroke="black" d="M417.213,-576.952C417.015,-649.434 416.701,-764.595 416.511,-834.143"/>
</g>
<!-- StepsController -->
<g id="node8" class="node"><title>StepsController</title>
<path fill="none" stroke="black" d="M43.6621,-266.205C43.6621,-266.205 123.545,-266.205 123.545,-266.205 129.545,-266.205 135.545,-272.205 135.545,-278.205 135.545,-278.205 135.545,-526.205 135.545,-526.205 135.545,-532.205 129.545,-538.205 123.545,-538.205 123.545,-538.205 43.6621,-538.205 43.6621,-538.205 37.6621,-538.205 31.6621,-532.205 31.6621,-526.205 31.6621,-526.205 31.6621,-278.205 31.6621,-278.205 31.6621,-272.205 37.6621,-266.205 43.6621,-266.205"/>
<text text-anchor="middle" x="83.6035" y="-523.005" font-family="Times,serif" font-size="14.00">StepsController</text>
<polyline fill="none" stroke="black" points="31.6621,-516.205 135.545,-516.205 "/>
<text text-anchor="start" x="39.6621" y="-501.005" font-family="Times,serif" font-size="14.00">create</text>
<text text-anchor="start" x="39.6621" y="-487.005" font-family="Times,serif" font-size="14.00">create_resource</text>
<text text-anchor="start" x="39.6621" y="-473.005" font-family="Times,serif" font-size="14.00">destroy</text>
<text text-anchor="start" x="39.6621" y="-459.005" font-family="Times,serif" font-size="14.00">edit</text>
<text text-anchor="start" x="39.6621" y="-445.005" font-family="Times,serif" font-size="14.00">index</text>
<text text-anchor="start" x="39.6621" y="-431.005" font-family="Times,serif" font-size="14.00">new</text>
<text text-anchor="start" x="39.6621" y="-417.005" font-family="Times,serif" font-size="14.00">new_resource</text>
<text text-anchor="start" x="39.6621" y="-403.005" font-family="Times,serif" font-size="14.00">reorder</text>
<text text-anchor="start" x="39.6621" y="-389.005" font-family="Times,serif" font-size="14.00">show</text>
<text text-anchor="start" x="39.6621" y="-375.005" font-family="Times,serif" font-size="14.00">sort</text>
<text text-anchor="start" x="39.6621" y="-361.005" font-family="Times,serif" font-size="14.00">steps_to_sort</text>
<text text-anchor="start" x="39.6621" y="-347.005" font-family="Times,serif" font-size="14.00">update</text>
<polyline fill="none" stroke="black" points="31.6621,-340.205 135.545,-340.205 "/>
<polyline fill="none" stroke="black" points="31.6621,-316.205 135.545,-316.205 "/>
<text text-anchor="start" x="39.6621" y="-301.005" font-family="Times,serif" font-size="14.00">_layout</text>
<text text-anchor="start" x="39.6621" y="-287.005" font-family="Times,serif" font-size="14.00">set_step</text>
<text text-anchor="start" x="39.6621" y="-273.005" font-family="Times,serif" font-size="14.00">step_params</text>
</g>
<!-- ApplicationController&#45;&gt;StepsController -->
<g id="edge6" class="edge"><title>ApplicationController&#45;&gt;StepsController</title>
<path fill="none" stroke="black" d="M337.018,-484.624C274.516,-464.296 189.638,-436.691 135.733,-419.159"/>
</g>
<!-- SuggestionsController -->
<g id="node9" class="node"><title>SuggestionsController</title>
<path fill="none" stroke="black" d="M686.682,-322.85C686.682,-322.85 803.903,-322.85 803.903,-322.85 809.903,-322.85 815.903,-328.85 815.903,-334.85 815.903,-334.85 815.903,-470.85 815.903,-470.85 815.903,-476.85 809.903,-482.85 803.903,-482.85 803.903,-482.85 686.682,-482.85 686.682,-482.85 680.682,-482.85 674.682,-476.85 674.682,-470.85 674.682,-470.85 674.682,-334.85 674.682,-334.85 674.682,-328.85 680.682,-322.85 686.682,-322.85"/>
<text text-anchor="middle" x="745.292" y="-467.65" font-family="Times,serif" font-size="14.00">SuggestionsController</text>
<polyline fill="none" stroke="black" points="674.682,-460.85 815.903,-460.85 "/>
<text text-anchor="start" x="682.682" y="-445.65" font-family="Times,serif" font-size="14.00">create</text>
<text text-anchor="start" x="682.682" y="-431.65" font-family="Times,serif" font-size="14.00">destroy</text>
<text text-anchor="start" x="682.682" y="-417.65" font-family="Times,serif" font-size="14.00">index</text>
<text text-anchor="start" x="682.682" y="-403.65" font-family="Times,serif" font-size="14.00">new</text>
<polyline fill="none" stroke="black" points="674.682,-396.85 815.903,-396.85 "/>
<polyline fill="none" stroke="black" points="674.682,-372.85 815.903,-372.85 "/>
<text text-anchor="start" x="682.682" y="-357.65" font-family="Times,serif" font-size="14.00">_layout</text>
<text text-anchor="start" x="682.682" y="-343.65" font-family="Times,serif" font-size="14.00">set_suggestion</text>
<text text-anchor="start" x="682.682" y="-329.65" font-family="Times,serif" font-size="14.00">suggestion_params</text>
</g>
<!-- ApplicationController&#45;&gt;SuggestionsController -->
<g id="edge7" class="edge"><title>ApplicationController&#45;&gt;SuggestionsController</title>
<path fill="none" stroke="black" d="M498.027,-484.228C552.07,-466.442 622.563,-443.242 674.447,-426.166"/>
</g>
<!-- UpvotesController -->
<g id="node10" class="node"><title>UpvotesController</title>
<path fill="none" stroke="black" d="M12.8261,-37.5185C12.8261,-37.5185 109.033,-37.5185 109.033,-37.5185 115.033,-37.5185 121.033,-43.5185 121.033,-49.5185 121.033,-49.5185 121.033,-129.518 121.033,-129.518 121.033,-135.518 115.033,-141.518 109.033,-141.518 109.033,-141.518 12.8261,-141.518 12.8261,-141.518 6.82608,-141.518 0.826084,-135.518 0.826084,-129.518 0.826084,-129.518 0.826084,-49.5185 0.826084,-49.5185 0.826084,-43.5185 6.82608,-37.5185 12.8261,-37.5185"/>
<text text-anchor="middle" x="60.9296" y="-126.318" font-family="Times,serif" font-size="14.00">UpvotesController</text>
<polyline fill="none" stroke="black" points="0.826084,-119.518 121.033,-119.518 "/>
<text text-anchor="start" x="8.82608" y="-104.318" font-family="Times,serif" font-size="14.00">clear_upvote</text>
<text text-anchor="start" x="8.82608" y="-90.3185" font-family="Times,serif" font-size="14.00">create</text>
<polyline fill="none" stroke="black" points="0.826084,-83.5185 121.033,-83.5185 "/>
<polyline fill="none" stroke="black" points="0.826084,-59.5185 121.033,-59.5185 "/>
<text text-anchor="start" x="8.82608" y="-44.3185" font-family="Times,serif" font-size="14.00">_layout</text>
</g>
<!-- ApplicationController&#45;&gt;UpvotesController -->
<g id="edge8" class="edge"><title>ApplicationController&#45;&gt;UpvotesController</title>
<path fill="none" stroke="black" d="M361.304,-444.482C290.427,-360.723 169.895,-218.287 105.16,-141.787"/>
</g>
<!-- UsersController -->
<g id="node11" class="node"><title>UsersController</title>
<path fill="none" stroke="black" d="M441.476,-22.5781C441.476,-22.5781 593.628,-22.5781 593.628,-22.5781 599.628,-22.5781 605.628,-28.5781 605.628,-34.5781 605.628,-34.5781 605.628,-212.578 605.628,-212.578 605.628,-218.578 599.628,-224.578 593.628,-224.578 593.628,-224.578 441.476,-224.578 441.476,-224.578 435.476,-224.578 429.476,-218.578 429.476,-212.578 429.476,-212.578 429.476,-34.5781 429.476,-34.5781 429.476,-28.5781 435.476,-22.5781 441.476,-22.5781"/>
<text text-anchor="middle" x="517.552" y="-209.378" font-family="Times,serif" font-size="14.00">UsersController</text>
<polyline fill="none" stroke="black" points="429.476,-202.578 605.628,-202.578 "/>
<text text-anchor="start" x="437.476" y="-187.378" font-family="Times,serif" font-size="14.00">create</text>
<text text-anchor="start" x="437.476" y="-173.378" font-family="Times,serif" font-size="14.00">edit</text>
<text text-anchor="start" x="437.476" y="-159.378" font-family="Times,serif" font-size="14.00">index</text>
<text text-anchor="start" x="437.476" y="-145.378" font-family="Times,serif" font-size="14.00">new</text>
<text text-anchor="start" x="437.476" y="-131.378" font-family="Times,serif" font-size="14.00">show</text>
<text text-anchor="start" x="437.476" y="-117.378" font-family="Times,serif" font-size="14.00">update</text>
<polyline fill="none" stroke="black" points="429.476,-110.578 605.628,-110.578 "/>
<polyline fill="none" stroke="black" points="429.476,-86.5781 605.628,-86.5781 "/>
<text text-anchor="start" x="437.476" y="-71.3781" font-family="Times,serif" font-size="14.00">_layout</text>
<text text-anchor="start" x="437.476" y="-57.3781" font-family="Times,serif" font-size="14.00">redirect_if_not_current_user</text>
<text text-anchor="start" x="437.476" y="-43.3781" font-family="Times,serif" font-size="14.00">set_user</text>
<text text-anchor="start" x="437.476" y="-29.3781" font-family="Times,serif" font-size="14.00">user_params</text>
</g>
<!-- ApplicationController&#45;&gt;UsersController -->
<g id="edge9" class="edge"><title>ApplicationController&#45;&gt;UsersController</title>
<path fill="none" stroke="black" d="M434.498,-444.645C450.114,-384.277 473.431,-294.139 491.388,-224.724"/>
</g>
<!-- ValuePropositionCategoriesController -->
<g id="node12" class="node"><title>ValuePropositionCategoriesController</title>
<path fill="none" stroke="black" d="M675.522,-0.5C675.522,-0.5 881.377,-0.5 881.377,-0.5 887.377,-0.5 893.377,-6.5 893.377,-12.5 893.377,-12.5 893.377,-176.5 893.377,-176.5 893.377,-182.5 887.377,-188.5 881.377,-188.5 881.377,-188.5 675.522,-188.5 675.522,-188.5 669.522,-188.5 663.522,-182.5 663.522,-176.5 663.522,-176.5 663.522,-12.5 663.522,-12.5 663.522,-6.5 669.522,-0.5 675.522,-0.5"/>
<text text-anchor="middle" x="778.45" y="-173.3" font-family="Times,serif" font-size="14.00">ValuePropositionCategoriesController</text>
<polyline fill="none" stroke="black" points="663.522,-166.5 893.377,-166.5 "/>
<text text-anchor="start" x="671.522" y="-151.3" font-family="Times,serif" font-size="14.00">create</text>
<text text-anchor="start" x="671.522" y="-137.3" font-family="Times,serif" font-size="14.00">destroy</text>
<text text-anchor="start" x="671.522" y="-123.3" font-family="Times,serif" font-size="14.00">index</text>
<text text-anchor="start" x="671.522" y="-109.3" font-family="Times,serif" font-size="14.00">new</text>
<text text-anchor="start" x="671.522" y="-95.3" font-family="Times,serif" font-size="14.00">show</text>
<text text-anchor="start" x="671.522" y="-81.3" font-family="Times,serif" font-size="14.00">update</text>
<polyline fill="none" stroke="black" points="663.522,-74.5 893.377,-74.5 "/>
<polyline fill="none" stroke="black" points="663.522,-50.5 893.377,-50.5 "/>
<text text-anchor="start" x="671.522" y="-35.3" font-family="Times,serif" font-size="14.00">_layout</text>
<text text-anchor="start" x="671.522" y="-21.3" font-family="Times,serif" font-size="14.00">set_value_proposition</text>
<text text-anchor="start" x="671.522" y="-7.3" font-family="Times,serif" font-size="14.00">value_proposition_categories_params</text>
</g>
<!-- ApplicationController&#45;&gt;ValuePropositionCategoriesController -->
<g id="edge10" class="edge"><title>ApplicationController&#45;&gt;ValuePropositionCategoriesController</title>
<path fill="none" stroke="black" d="M475.004,-444.346C534.931,-375.255 629.272,-266.488 696.853,-188.574"/>
</g>
<!-- ValuePropositionsController -->
<g id="node13" class="node"><title>ValuePropositionsController</title>
<path fill="none" stroke="black" d="M25.6748,-547.187C25.6748,-547.187 177.109,-547.187 177.109,-547.187 183.109,-547.187 189.109,-553.187 189.109,-559.187 189.109,-559.187 189.109,-751.187 189.109,-751.187 189.109,-757.187 183.109,-763.187 177.109,-763.187 177.109,-763.187 25.6748,-763.187 25.6748,-763.187 19.6748,-763.187 13.6748,-757.187 13.6748,-751.187 13.6748,-751.187 13.6748,-559.187 13.6748,-559.187 13.6748,-553.187 19.6748,-547.187 25.6748,-547.187"/>
<text text-anchor="middle" x="101.392" y="-747.987" font-family="Times,serif" font-size="14.00">ValuePropositionsController</text>
<polyline fill="none" stroke="black" points="13.6748,-741.187 189.109,-741.187 "/>
<text text-anchor="start" x="21.6748" y="-725.987" font-family="Times,serif" font-size="14.00">create</text>
<text text-anchor="start" x="21.6748" y="-711.987" font-family="Times,serif" font-size="14.00">destroy</text>
<text text-anchor="start" x="21.6748" y="-697.987" font-family="Times,serif" font-size="14.00">edit</text>
<text text-anchor="start" x="21.6748" y="-683.987" font-family="Times,serif" font-size="14.00">index</text>
<text text-anchor="start" x="21.6748" y="-669.987" font-family="Times,serif" font-size="14.00">new</text>
<text text-anchor="start" x="21.6748" y="-655.987" font-family="Times,serif" font-size="14.00">show</text>
<text text-anchor="start" x="21.6748" y="-641.987" font-family="Times,serif" font-size="14.00">update</text>
<polyline fill="none" stroke="black" points="13.6748,-635.187 189.109,-635.187 "/>
<polyline fill="none" stroke="black" points="13.6748,-611.187 189.109,-611.187 "/>
<text text-anchor="start" x="21.6748" y="-595.987" font-family="Times,serif" font-size="14.00">_layout</text>
<text text-anchor="start" x="21.6748" y="-581.987" font-family="Times,serif" font-size="14.00">load_steps</text>
<text text-anchor="start" x="21.6748" y="-567.987" font-family="Times,serif" font-size="14.00">set_value_proposition</text>
<text text-anchor="start" x="21.6748" y="-553.987" font-family="Times,serif" font-size="14.00">value_proposition_params</text>
</g>
<!-- ApplicationController&#45;&gt;ValuePropositionsController -->
<g id="edge11" class="edge"><title>ApplicationController&#45;&gt;ValuePropositionsController</title>
<path fill="none" stroke="black" d="M336.836,-547.582C291.761,-568.183 235.515,-593.889 189.302,-615.01"/>
</g>
</g>
</svg>
