<?xml version="1.0" encoding="UTF-8" standalone="no"?>
<!DOCTYPE svg PUBLIC "-//W3C//DTD SVG 1.1//EN"
 "http://www.w3.org/Graphics/SVG/1.1/DTD/svg11.dtd">
<!-- Generated by graphviz version 2.36.0 (20140111.2315)
 -->
<!-- Title: models_diagram Pages: 1 -->
<svg width="1147pt" height="692pt"
 viewBox="0.00 0.00 1146.60 692.00" xmlns="http://www.w3.org/2000/svg" xmlns:xlink="http://www.w3.org/1999/xlink">
<g id="graph0" class="graph" transform="scale(1 1) rotate(0) translate(4 688)">
<title>models_diagram</title>
<polygon fill="white" stroke="none" points="-4,4 -4,-688 1142.6,-688 1142.6,4 -4,4"/>
<!-- _diagram_info -->
<g id="node1" class="node"><title>_diagram_info</title>
<text text-anchor="start" x="316.312" y="-669.1" font-family="Times,serif" font-size="13.00">Models diagram</text>
<text text-anchor="start" x="316.312" y="-656.1" font-family="Times,serif" font-size="13.00">Date: Mar 17 2014 &#45; 22:05</text>
<text text-anchor="start" x="316.312" y="-643.1" font-family="Times,serif" font-size="13.00">Migration version: 20140225165907</text>
<text text-anchor="start" x="316.312" y="-630.1" font-family="Times,serif" font-size="13.00">Generated by RailRoady 1.1.1</text>
<text text-anchor="start" x="316.312" y="-617.1" font-family="Times,serif" font-size="13.00">http://railroady.prestonlee.com</text>
</g>
<!-- Bookmark -->
<g id="node2" class="node"><title>Bookmark</title>
<path fill="none" stroke="black" d="M11.4946,-15C11.4946,-15 120.505,-15 120.505,-15 126.505,-15 132.505,-21 132.505,-27 132.505,-27 132.505,-103 132.505,-103 132.505,-109 126.505,-115 120.505,-115 120.505,-115 11.4946,-115 11.4946,-115 5.49463,-115 -0.505371,-109 -0.505371,-103 -0.505371,-103 -0.505371,-27 -0.505371,-27 -0.505371,-21 5.49463,-15 11.4946,-15"/>
<text text-anchor="middle" x="66" y="-99.8" font-family="Times,serif" font-size="14.00">Bookmark</text>
<polyline fill="none" stroke="black" points="-0.505371,-93 132.505,-93 "/>
<text text-anchor="start" x="7.49463" y="-77.8" font-family="Times,serif" font-size="14.00">id :integer</text>
<text text-anchor="start" x="7.49463" y="-63.8" font-family="Times,serif" font-size="14.00">user_id :integer</text>
<text text-anchor="start" x="7.49463" y="-49.8" font-family="Times,serif" font-size="14.00">resource_id :integer</text>
<text text-anchor="start" x="7.49463" y="-35.8" font-family="Times,serif" font-size="14.00">created_at :datetime</text>
<text text-anchor="start" x="7.49463" y="-21.8" font-family="Times,serif" font-size="14.00">updated_at :datetime</text>
</g>
<!-- Comment -->
<g id="node3" class="node"><title>Comment</title>
<path fill="none" stroke="black" d="M162.495,-8C162.495,-8 271.505,-8 271.505,-8 277.505,-8 283.505,-14 283.505,-20 283.505,-20 283.505,-110 283.505,-110 283.505,-116 277.505,-122 271.505,-122 271.505,-122 162.495,-122 162.495,-122 156.495,-122 150.495,-116 150.495,-110 150.495,-110 150.495,-20 150.495,-20 150.495,-14 156.495,-8 162.495,-8"/>
<text text-anchor="middle" x="217" y="-106.8" font-family="Times,serif" font-size="14.00">Comment</text>
<polyline fill="none" stroke="black" points="150.495,-100 283.505,-100 "/>
<text text-anchor="start" x="158.495" y="-84.8" font-family="Times,serif" font-size="14.00">id :integer</text>
<text text-anchor="start" x="158.495" y="-70.8" font-family="Times,serif" font-size="14.00">resource_id :integer</text>
<text text-anchor="start" x="158.495" y="-56.8" font-family="Times,serif" font-size="14.00">user_id :integer</text>
<text text-anchor="start" x="158.495" y="-42.8" font-family="Times,serif" font-size="14.00">created_at :datetime</text>
<text text-anchor="start" x="158.495" y="-28.8" font-family="Times,serif" font-size="14.00">updated_at :datetime</text>
<text text-anchor="start" x="158.495" y="-14.8" font-family="Times,serif" font-size="14.00">text :text</text>
</g>
<!-- Resource -->
<g id="node4" class="node"><title>Resource</title>
<path fill="none" stroke="black" d="M312.322,-347C312.322,-347 423.678,-347 423.678,-347 429.678,-347 435.678,-353 435.678,-359 435.678,-359 435.678,-561 435.678,-561 435.678,-567 429.678,-573 423.678,-573 423.678,-573 312.322,-573 312.322,-573 306.322,-573 300.322,-567 300.322,-561 300.322,-561 300.322,-359 300.322,-359 300.322,-353 306.322,-347 312.322,-347"/>
<text text-anchor="middle" x="368" y="-557.8" font-family="Times,serif" font-size="14.00">Resource</text>
<polyline fill="none" stroke="black" points="300.322,-551 435.678,-551 "/>
<text text-anchor="start" x="308.322" y="-535.8" font-family="Times,serif" font-size="14.00">id :integer</text>
<text text-anchor="start" x="308.322" y="-521.8" font-family="Times,serif" font-size="14.00">name :string</text>
<text text-anchor="start" x="308.322" y="-507.8" font-family="Times,serif" font-size="14.00">link :string</text>
<text text-anchor="start" x="308.322" y="-493.8" font-family="Times,serif" font-size="14.00">description :text</text>
<text text-anchor="start" x="308.322" y="-479.8" font-family="Times,serif" font-size="14.00">created_at :datetime</text>
<text text-anchor="start" x="308.322" y="-465.8" font-family="Times,serif" font-size="14.00">updated_at :datetime</text>
<text text-anchor="start" x="308.322" y="-451.8" font-family="Times,serif" font-size="14.00">full_description :text</text>
<text text-anchor="start" x="308.322" y="-437.8" font-family="Times,serif" font-size="14.00">user_id :integer</text>
<text text-anchor="start" x="308.322" y="-423.8" font-family="Times,serif" font-size="14.00">source :string</text>
<text text-anchor="start" x="308.322" y="-409.8" font-family="Times,serif" font-size="14.00">tag_list :string</text>
<text text-anchor="start" x="308.322" y="-395.8" font-family="Times,serif" font-size="14.00">image :string</text>
<text text-anchor="start" x="308.322" y="-381.8" font-family="Times,serif" font-size="14.00">default_image :string</text>
<text text-anchor="start" x="308.322" y="-367.8" font-family="Times,serif" font-size="14.00">file :string</text>
<text text-anchor="start" x="308.322" y="-353.8" font-family="Times,serif" font-size="14.00">position :integer</text>
</g>
<!-- Resource&#45;&gt;Bookmark -->
<g id="edge6" class="edge"><title>Resource&#45;&gt;Bookmark</title>
<path fill="none" stroke="#2faf7a" d="M293.015,-426.864C242.957,-401.82 179.331,-362.473 140,-310 99.095,-255.427 80.6229,-178.163 72.3979,-125.288"/>
<ellipse fill="none" stroke="#2faf7a" cx="296.71" cy="-428.686" rx="4.00002" ry="4.00002"/>
<polygon fill="#2faf7a" stroke="#2faf7a" points="72.3959,-125.274 75.3836,-114.723 71.664,-120.327 70.9321,-115.381 70.9321,-115.381 70.9321,-115.381 71.664,-120.327 66.4806,-116.04 72.3959,-125.274 72.3959,-125.274"/>
</g>
<!-- Resource&#45;&gt;Comment -->
<g id="edge9" class="edge"><title>Resource&#45;&gt;Comment</title>
<path fill="none" stroke="#cb8f2c" d="M356.856,-338.955C348.242,-284.015 332.989,-219.409 306,-166 299.716,-153.565 291.495,-141.469 282.588,-130.237"/>
<ellipse fill="none" stroke="#cb8f2c" cx="357.477" cy="-343.034" rx="4.00001" ry="4.00001"/>
<polygon fill="#cb8f2c" stroke="#cb8f2c" points="282.347,-129.945 279.476,-119.362 279.173,-126.082 275.999,-122.218 275.999,-122.218 275.999,-122.218 279.173,-126.082 272.522,-125.075 282.347,-129.945 282.347,-129.945"/>
</g>
<!-- Step -->
<g id="node6" class="node"><title>Step</title>
<path fill="none" stroke="black" d="M464.377,-1C464.377,-1 621.623,-1 621.623,-1 627.623,-1 633.623,-7 633.623,-13 633.623,-13 633.623,-117 633.623,-117 633.623,-123 627.623,-129 621.623,-129 621.623,-129 464.377,-129 464.377,-129 458.377,-129 452.377,-123 452.377,-117 452.377,-117 452.377,-13 452.377,-13 452.377,-7 458.377,-1 464.377,-1"/>
<text text-anchor="middle" x="543" y="-113.8" font-family="Times,serif" font-size="14.00">Step</text>
<polyline fill="none" stroke="black" points="452.377,-107 633.623,-107 "/>
<text text-anchor="start" x="460.377" y="-91.8" font-family="Times,serif" font-size="14.00">id :integer</text>
<text text-anchor="start" x="460.377" y="-77.8" font-family="Times,serif" font-size="14.00">name :string</text>
<text text-anchor="start" x="460.377" y="-63.8" font-family="Times,serif" font-size="14.00">description :text</text>
<text text-anchor="start" x="460.377" y="-49.8" font-family="Times,serif" font-size="14.00">created_at :datetime</text>
<text text-anchor="start" x="460.377" y="-35.8" font-family="Times,serif" font-size="14.00">updated_at :datetime</text>
<text text-anchor="start" x="460.377" y="-21.8" font-family="Times,serif" font-size="14.00">value_proposition_id :integer</text>
<text text-anchor="start" x="460.377" y="-7.8" font-family="Times,serif" font-size="14.00">position :integer</text>
</g>
<!-- Resource&#45;&gt;Step -->
<g id="edge8" class="edge"><title>Resource&#45;&gt;Step</title>
<path fill="none" stroke="#e534b2" d="M412.055,-337.235C432.513,-283.905 458.215,-221.061 485,-166 489.458,-156.836 494.429,-147.374 499.534,-138.092"/>
<polygon fill="#e534b2" stroke="#e534b2" points="411.995,-337.393 404.224,-345.13 410.211,-342.064 408.428,-346.735 408.428,-346.735 408.428,-346.735 410.211,-342.064 412.632,-348.34 411.995,-337.393 411.995,-337.393"/>
<polygon fill="#e534b2" stroke="#e534b2" points="499.587,-137.997 508.387,-131.456 502.022,-133.631 504.457,-129.264 504.457,-129.264 504.457,-129.264 502.022,-133.631 500.527,-127.072 499.587,-137.997 499.587,-137.997"/>
</g>
<!-- Tag -->
<g id="node8" class="node"><title>Tag</title>
<path fill="none" stroke="black" d="M932.495,-195C932.495,-195 1041.51,-195 1041.51,-195 1047.51,-195 1053.51,-201 1053.51,-207 1053.51,-207 1053.51,-269 1053.51,-269 1053.51,-275 1047.51,-281 1041.51,-281 1041.51,-281 932.495,-281 932.495,-281 926.495,-281 920.495,-275 920.495,-269 920.495,-269 920.495,-207 920.495,-207 920.495,-201 926.495,-195 932.495,-195"/>
<text text-anchor="middle" x="987" y="-265.8" font-family="Times,serif" font-size="14.00">Tag</text>
<polyline fill="none" stroke="black" points="920.495,-259 1053.51,-259 "/>
<text text-anchor="start" x="928.495" y="-243.8" font-family="Times,serif" font-size="14.00">id :integer</text>
<text text-anchor="start" x="928.495" y="-229.8" font-family="Times,serif" font-size="14.00">name :string</text>
<text text-anchor="start" x="928.495" y="-215.8" font-family="Times,serif" font-size="14.00">created_at :datetime</text>
<text text-anchor="start" x="928.495" y="-201.8" font-family="Times,serif" font-size="14.00">updated_at :datetime</text>
</g>
<!-- Resource&#45;&gt;Tag -->
<g id="edge11" class="edge"><title>Resource&#45;&gt;Tag</title>
<path fill="none" stroke="#e2625e" d="M444.596,-346.733C538.304,-301.805 769.156,-335.223 854,-310 873.621,-304.167 893.665,-295.272 912.044,-285.731"/>
<polygon fill="#e2625e" stroke="#e2625e" points="444.52,-346.773 433.58,-347.518 440.111,-349.13 435.701,-351.487 435.701,-351.487 435.701,-351.487 440.111,-349.13 437.822,-355.456 444.52,-346.773 444.52,-346.773"/>
<polygon fill="#e2625e" stroke="#e2625e" points="912.095,-285.703 923.037,-284.977 916.509,-283.354 920.923,-281.005 920.923,-281.005 920.923,-281.005 916.509,-283.354 918.809,-277.033 912.095,-285.703 912.095,-285.703"/>
</g>
<!-- Tagging -->
<g id="node9" class="node"><title>Tagging</title>
<path fill="none" stroke="black" d="M932.495,-15C932.495,-15 1041.51,-15 1041.51,-15 1047.51,-15 1053.51,-21 1053.51,-27 1053.51,-27 1053.51,-103 1053.51,-103 1053.51,-109 1047.51,-115 1041.51,-115 1041.51,-115 932.495,-115 932.495,-115 926.495,-115 920.495,-109 920.495,-103 920.495,-103 920.495,-27 920.495,-27 920.495,-21 926.495,-15 932.495,-15"/>
<text text-anchor="middle" x="987" y="-99.8" font-family="Times,serif" font-size="14.00">Tagging</text>
<polyline fill="none" stroke="black" points="920.495,-93 1053.51,-93 "/>
<text text-anchor="start" x="928.495" y="-77.8" font-family="Times,serif" font-size="14.00">id :integer</text>
<text text-anchor="start" x="928.495" y="-63.8" font-family="Times,serif" font-size="14.00">tag_id :integer</text>
<text text-anchor="start" x="928.495" y="-49.8" font-family="Times,serif" font-size="14.00">resource_id :integer</text>
<text text-anchor="start" x="928.495" y="-35.8" font-family="Times,serif" font-size="14.00">created_at :datetime</text>
<text text-anchor="start" x="928.495" y="-21.8" font-family="Times,serif" font-size="14.00">updated_at :datetime</text>
</g>
<!-- Resource&#45;&gt;Tagging -->
<g id="edge10" class="edge"><title>Resource&#45;&gt;Tagging</title>
<path fill="none" stroke="#621485" d="M441.949,-347.703C442.629,-347.128 443.313,-346.56 444,-346 476.764,-319.313 501.34,-339.08 532,-310 583.352,-261.293 543.186,-208.208 600,-166 686.935,-101.415 736.939,-160.003 841,-130 864.385,-123.258 888.931,-113.596 911.082,-103.815"/>
<ellipse fill="none" stroke="#621485" cx="438.92" cy="-350.408" rx="4.00002" ry="4.00002"/>
<polygon fill="#621485" stroke="#621485" points="911.295,-103.72 922.261,-103.73 915.857,-101.672 920.418,-99.6249 920.418,-99.6249 920.418,-99.6249 915.857,-101.672 918.576,-95.5195 911.295,-103.72 911.295,-103.72"/>
</g>
<!-- Upvote -->
<g id="node10" class="node"><title>Upvote</title>
<path fill="none" stroke="black" d="M313.495,-15C313.495,-15 422.505,-15 422.505,-15 428.505,-15 434.505,-21 434.505,-27 434.505,-27 434.505,-103 434.505,-103 434.505,-109 428.505,-115 422.505,-115 422.505,-115 313.495,-115 313.495,-115 307.495,-115 301.495,-109 301.495,-103 301.495,-103 301.495,-27 301.495,-27 301.495,-21 307.495,-15 313.495,-15"/>
<text text-anchor="middle" x="368" y="-99.8" font-family="Times,serif" font-size="14.00">Upvote</text>
<polyline fill="none" stroke="black" points="301.495,-93 434.505,-93 "/>
<text text-anchor="start" x="309.495" y="-77.8" font-family="Times,serif" font-size="14.00">id :integer</text>
<text text-anchor="start" x="309.495" y="-63.8" font-family="Times,serif" font-size="14.00">resource_id :integer</text>
<text text-anchor="start" x="309.495" y="-49.8" font-family="Times,serif" font-size="14.00">user_id :integer</text>
<text text-anchor="start" x="309.495" y="-35.8" font-family="Times,serif" font-size="14.00">created_at :datetime</text>
<text text-anchor="start" x="309.495" y="-21.8" font-family="Times,serif" font-size="14.00">updated_at :datetime</text>
</g>
<!-- Resource&#45;&gt;Upvote -->
<g id="edge5" class="edge"><title>Resource&#45;&gt;Upvote</title>
<path fill="none" stroke="#4ede27" d="M375.895,-338.621C376.34,-328.941 376.719,-319.309 377,-310 378.93,-246.029 379.871,-229.936 377,-166 376.405,-152.748 375.368,-138.538 374.205,-125.11"/>
<ellipse fill="none" stroke="#4ede27" cx="375.698" cy="-342.763" rx="4" ry="4"/>
<polygon fill="#4ede27" stroke="#4ede27" points="374.194,-124.983 377.778,-114.619 373.745,-120.003 373.296,-115.023 373.296,-115.023 373.296,-115.023 373.745,-120.003 368.815,-115.427 374.194,-124.983 374.194,-124.983"/>
</g>
<!-- User -->
<g id="node11" class="node"><title>User</title>
<path fill="none" stroke="black" d="M160.698,-174C160.698,-174 285.302,-174 285.302,-174 291.302,-174 297.302,-180 297.302,-186 297.302,-186 297.302,-290 297.302,-290 297.302,-296 291.302,-302 285.302,-302 285.302,-302 160.698,-302 160.698,-302 154.698,-302 148.698,-296 148.698,-290 148.698,-290 148.698,-186 148.698,-186 148.698,-180 154.698,-174 160.698,-174"/>
<text text-anchor="middle" x="223" y="-286.8" font-family="Times,serif" font-size="14.00">User</text>
<polyline fill="none" stroke="black" points="148.698,-280 297.302,-280 "/>
<text text-anchor="start" x="156.698" y="-264.8" font-family="Times,serif" font-size="14.00">id :integer</text>
<text text-anchor="start" x="156.698" y="-250.8" font-family="Times,serif" font-size="14.00">email :string</text>
<text text-anchor="start" x="156.698" y="-236.8" font-family="Times,serif" font-size="14.00">password_digest :string</text>
<text text-anchor="start" x="156.698" y="-222.8" font-family="Times,serif" font-size="14.00">name :string</text>
<text text-anchor="start" x="156.698" y="-208.8" font-family="Times,serif" font-size="14.00">created_at :datetime</text>
<text text-anchor="start" x="156.698" y="-194.8" font-family="Times,serif" font-size="14.00">updated_at :datetime</text>
<text text-anchor="start" x="156.698" y="-180.8" font-family="Times,serif" font-size="14.00">is_admin :boolean</text>
</g>
<!-- Resource&#45;&gt;User -->
<g id="edge7" class="edge"><title>Resource&#45;&gt;User</title>
<path fill="none" stroke="#85ef36" d="M294.462,-347.424C286.19,-334.874 277.936,-322.352 270.131,-310.51"/>
<polygon fill="#85ef36" stroke="#85ef36" points="294.667,-347.736 296.413,-358.562 297.418,-351.911 300.17,-356.085 300.17,-356.085 300.17,-356.085 297.418,-351.911 303.927,-353.609 294.667,-347.736 294.667,-347.736"/>
<polygon fill="#85ef36" stroke="#85ef36" points="270.037,-310.366 268.291,-299.54 267.285,-306.192 264.534,-302.017 264.534,-302.017 264.534,-302.017 267.285,-306.192 260.776,-304.493 270.037,-310.366 270.037,-310.366"/>
</g>
<!-- ValueProposition -->
<g id="node12" class="node"><title>ValueProposition</title>
<path fill="none" stroke="black" d="M620.781,-167C620.781,-167 833.219,-167 833.219,-167 839.219,-167 845.219,-173 845.219,-179 845.219,-179 845.219,-297 845.219,-297 845.219,-303 839.219,-309 833.219,-309 833.219,-309 620.781,-309 620.781,-309 614.781,-309 608.781,-303 608.781,-297 608.781,-297 608.781,-179 608.781,-179 608.781,-173 614.781,-167 620.781,-167"/>
<text text-anchor="middle" x="727" y="-293.8" font-family="Times,serif" font-size="14.00">ValueProposition</text>
<polyline fill="none" stroke="black" points="608.781,-287 845.219,-287 "/>
<text text-anchor="start" x="616.781" y="-271.8" font-family="Times,serif" font-size="14.00">id :integer</text>
<text text-anchor="start" x="616.781" y="-257.8" font-family="Times,serif" font-size="14.00">name :string</text>
<text text-anchor="start" x="616.781" y="-243.8" font-family="Times,serif" font-size="14.00">description :string</text>
<text text-anchor="start" x="616.781" y="-229.8" font-family="Times,serif" font-size="14.00">image :string</text>
<text text-anchor="start" x="616.781" y="-215.8" font-family="Times,serif" font-size="14.00">created_at :datetime</text>
<text text-anchor="start" x="616.781" y="-201.8" font-family="Times,serif" font-size="14.00">updated_at :datetime</text>
<text text-anchor="start" x="616.781" y="-187.8" font-family="Times,serif" font-size="14.00">value_proposition_category_id :integer</text>
<text text-anchor="start" x="616.781" y="-173.8" font-family="Times,serif" font-size="14.00">default_image :string</text>
</g>
<!-- Resource&#45;&gt;ValueProposition -->
<g id="edge4" class="edge"><title>Resource&#45;&gt;ValueProposition</title>
<path fill="none" stroke="#817032" d="M443.736,-346.184C443.824,-346.122 443.912,-346.061 444,-346 500.692,-306.682 530.523,-334.547 595,-310 596.406,-309.465 597.816,-308.917 599.228,-308.359"/>
<polygon fill="#817032" stroke="#817032" points="443.723,-346.193 433.044,-348.686 439.749,-349.228 435.775,-352.262 435.775,-352.262 435.775,-352.262 439.749,-349.228 438.507,-355.839 443.723,-346.193 443.723,-346.193"/>
<polygon fill="#817032" stroke="#817032" points="599.334,-308.316 610.294,-308.682 603.959,-306.417 608.585,-304.519 608.585,-304.519 608.585,-304.519 603.959,-306.417 606.876,-300.356 599.334,-308.316 599.334,-308.316"/>
</g>
<!-- ValuePropositionAssociation -->
<g id="node13" class="node"><title>ValuePropositionAssociation</title>
<path fill="none" stroke="black" d="M663.377,-15C663.377,-15 820.623,-15 820.623,-15 826.623,-15 832.623,-21 832.623,-27 832.623,-27 832.623,-103 832.623,-103 832.623,-109 826.623,-115 820.623,-115 820.623,-115 663.377,-115 663.377,-115 657.377,-115 651.377,-109 651.377,-103 651.377,-103 651.377,-27 651.377,-27 651.377,-21 657.377,-15 663.377,-15"/>
<text text-anchor="middle" x="742" y="-99.8" font-family="Times,serif" font-size="14.00">ValuePropositionAssociation</text>
<polyline fill="none" stroke="black" points="651.377,-93 832.623,-93 "/>
<text text-anchor="start" x="659.377" y="-77.8" font-family="Times,serif" font-size="14.00">id :integer</text>
<text text-anchor="start" x="659.377" y="-63.8" font-family="Times,serif" font-size="14.00">resource_id :integer</text>
<text text-anchor="start" x="659.377" y="-49.8" font-family="Times,serif" font-size="14.00">created_at :datetime</text>
<text text-anchor="start" x="659.377" y="-35.8" font-family="Times,serif" font-size="14.00">updated_at :datetime</text>
<text text-anchor="start" x="659.377" y="-21.8" font-family="Times,serif" font-size="14.00">value_proposition_id :integer</text>
</g>
<!-- Resource&#45;&gt;ValuePropositionAssociation -->
<g id="edge3" class="edge"><title>Resource&#45;&gt;ValuePropositionAssociation</title>
<path fill="none" stroke="#88541b" d="M440.473,-351.167C441.656,-349.431 442.833,-347.708 444,-346 454.992,-329.918 457.964,-326.052 469,-310 512.857,-246.206 508.311,-216.484 567,-166 595.031,-141.888 609.702,-147.999 642,-130 647.494,-126.938 653.1,-123.697 658.712,-120.362"/>
<ellipse fill="none" stroke="#88541b" cx="438.13" cy="-354.608" rx="4.00002" ry="4.00002"/>
<polygon fill="#88541b" stroke="#88541b" points="658.954,-120.217 669.842,-118.913 663.237,-117.637 667.521,-115.058 667.521,-115.058 667.521,-115.058 663.237,-117.637 665.199,-111.203 658.954,-120.217 658.954,-120.217"/>
</g>
<!-- ResourceFormat -->
<g id="node5" class="node"><title>ResourceFormat</title>
<path fill="none" stroke="black" d="M465.495,-410C465.495,-410 574.505,-410 574.505,-410 580.505,-410 586.505,-416 586.505,-422 586.505,-422 586.505,-498 586.505,-498 586.505,-504 580.505,-510 574.505,-510 574.505,-510 465.495,-510 465.495,-510 459.495,-510 453.495,-504 453.495,-498 453.495,-498 453.495,-422 453.495,-422 453.495,-416 459.495,-410 465.495,-410"/>
<text text-anchor="middle" x="520" y="-494.8" font-family="Times,serif" font-size="14.00">ResourceFormat</text>
<polyline fill="none" stroke="black" points="453.495,-488 586.505,-488 "/>
<text text-anchor="start" x="461.495" y="-472.8" font-family="Times,serif" font-size="14.00">id :integer</text>
<text text-anchor="start" x="461.495" y="-458.8" font-family="Times,serif" font-size="14.00">format_id :integer</text>
<text text-anchor="start" x="461.495" y="-444.8" font-family="Times,serif" font-size="14.00">resource_id :integer</text>
<text text-anchor="start" x="461.495" y="-430.8" font-family="Times,serif" font-size="14.00">created_at :datetime</text>
<text text-anchor="start" x="461.495" y="-416.8" font-family="Times,serif" font-size="14.00">updated_at :datetime</text>
</g>
<!-- Suggestion -->
<g id="node7" class="node"><title>Suggestion</title>
<path fill="none" stroke="black" d="M913.495,-410C913.495,-410 1022.51,-410 1022.51,-410 1028.51,-410 1034.51,-416 1034.51,-422 1034.51,-422 1034.51,-498 1034.51,-498 1034.51,-504 1028.51,-510 1022.51,-510 1022.51,-510 913.495,-510 913.495,-510 907.495,-510 901.495,-504 901.495,-498 901.495,-498 901.495,-422 901.495,-422 901.495,-416 907.495,-410 913.495,-410"/>
<text text-anchor="middle" x="968" y="-494.8" font-family="Times,serif" font-size="14.00">Suggestion</text>
<polyline fill="none" stroke="black" points="901.495,-488 1034.51,-488 "/>
<text text-anchor="start" x="909.495" y="-472.8" font-family="Times,serif" font-size="14.00">id :integer</text>
<text text-anchor="start" x="909.495" y="-458.8" font-family="Times,serif" font-size="14.00">author :string</text>
<text text-anchor="start" x="909.495" y="-444.8" font-family="Times,serif" font-size="14.00">thoughts :text</text>
<text text-anchor="start" x="909.495" y="-430.8" font-family="Times,serif" font-size="14.00">created_at :datetime</text>
<text text-anchor="start" x="909.495" y="-416.8" font-family="Times,serif" font-size="14.00">updated_at :datetime</text>
</g>
<!-- Tag&#45;&gt;Tagging -->
<g id="edge16" class="edge"><title>Tag&#45;&gt;Tagging</title>
<path fill="none" stroke="#27bd55" d="M987,-186.603C987,-167.37 987,-145.269 987,-125.284"/>
<ellipse fill="none" stroke="#27bd55" cx="987" cy="-190.73" rx="4" ry="4"/>
<polygon fill="#27bd55" stroke="#27bd55" points="987,-125.052 991.5,-115.052 987,-120.052 987,-115.052 987,-115.052 987,-115.052 987,-120.052 982.5,-115.052 987,-125.052 987,-125.052"/>
</g>
<!-- User&#45;&gt;Bookmark -->
<g id="edge21" class="edge"><title>User&#45;&gt;Bookmark</title>
<path fill="none" stroke="#8fafe7" d="M159.513,-167.852C145.676,-152.781 131.193,-137.007 117.871,-122.496"/>
<ellipse fill="none" stroke="#8fafe7" cx="162.28" cy="-170.865" rx="4.00002" ry="4.00002"/>
<polygon fill="#8fafe7" stroke="#8fafe7" points="117.783,-122.4 114.334,-111.991 114.401,-118.717 111.019,-115.034 111.019,-115.034 111.019,-115.034 114.401,-118.717 107.705,-118.077 117.783,-122.4 117.783,-122.4"/>
</g>
<!-- User&#45;&gt;Comment -->
<g id="edge22" class="edge"><title>User&#45;&gt;Comment</title>
<path fill="none" stroke="#1d4250" d="M220.501,-165.793C220.114,-154.759 219.716,-143.399 219.332,-132.475"/>
<ellipse fill="none" stroke="#1d4250" cx="220.643" cy="-169.814" rx="4" ry="4"/>
<polygon fill="#1d4250" stroke="#1d4250" points="219.321,-132.154 223.468,-122.002 219.146,-127.157 218.971,-122.16 218.971,-122.16 218.971,-122.16 219.146,-127.157 214.473,-122.318 219.321,-132.154 219.321,-132.154"/>
</g>
<!-- User&#45;&gt;Upvote -->
<g id="edge20" class="edge"><title>User&#45;&gt;Upvote</title>
<path fill="none" stroke="#833692" d="M282.026,-167.39C294.59,-152.574 307.713,-137.097 319.814,-122.826"/>
<ellipse fill="none" stroke="#833692" cx="279.168" cy="-170.761" rx="4.00002" ry="4.00002"/>
<polygon fill="#833692" stroke="#833692" points="319.954,-122.661 329.854,-117.944 323.188,-118.847 326.422,-115.034 326.422,-115.034 326.422,-115.034 323.188,-118.847 322.989,-112.124 319.954,-122.661 319.954,-122.661"/>
</g>
<!-- ValueProposition&#45;&gt;Step -->
<g id="edge25" class="edge"><title>ValueProposition&#45;&gt;Step</title>
<path fill="none" stroke="#66900d" d="M645.59,-161.342C636.531,-152.922 627.332,-144.374 618.353,-136.029"/>
<ellipse fill="none" stroke="#66900d" cx="648.699" cy="-164.231" rx="4.00002" ry="4.00002"/>
<polygon fill="#66900d" stroke="#66900d" points="618.195,-135.882 613.933,-125.778 614.532,-132.478 610.87,-129.074 610.87,-129.074 610.87,-129.074 614.532,-132.478 607.806,-132.371 618.195,-135.882 618.195,-135.882"/>
</g>
<!-- ValueProposition&#45;&gt;ValuePropositionAssociation -->
<g id="edge24" class="edge"><title>ValueProposition&#45;&gt;ValuePropositionAssociation</title>
<path fill="none" stroke="#da184f" d="M733.866,-158.73C734.855,-147.453 735.859,-136.008 736.808,-125.187"/>
<ellipse fill="none" stroke="#da184f" cx="733.494" cy="-162.97" rx="4" ry="4"/>
<polygon fill="#da184f" stroke="#da184f" points="736.825,-124.989 742.182,-115.421 737.262,-120.009 737.699,-115.028 737.699,-115.028 737.699,-115.028 737.262,-120.009 733.217,-114.634 736.825,-124.989 736.825,-124.989"/>
</g>
<!-- ValuePropositionCategory -->
<g id="node14" class="node"><title>ValuePropositionCategory</title>
<path fill="none" stroke="black" d="M693.121,-410C693.121,-410 832.879,-410 832.879,-410 838.879,-410 844.879,-416 844.879,-422 844.879,-422 844.879,-498 844.879,-498 844.879,-504 838.879,-510 832.879,-510 832.879,-510 693.121,-510 693.121,-510 687.121,-510 681.121,-504 681.121,-498 681.121,-498 681.121,-422 681.121,-422 681.121,-416 687.121,-410 693.121,-410"/>
<text text-anchor="middle" x="763" y="-494.8" font-family="Times,serif" font-size="14.00">ValuePropositionCategory</text>
<polyline fill="none" stroke="black" points="681.121,-488 844.879,-488 "/>
<text text-anchor="start" x="689.121" y="-472.8" font-family="Times,serif" font-size="14.00">id :integer</text>
<text text-anchor="start" x="689.121" y="-458.8" font-family="Times,serif" font-size="14.00">name :string</text>
<text text-anchor="start" x="689.121" y="-444.8" font-family="Times,serif" font-size="14.00">description :string</text>
<text text-anchor="start" x="689.121" y="-430.8" font-family="Times,serif" font-size="14.00">created_at :datetime</text>
<text text-anchor="start" x="689.121" y="-416.8" font-family="Times,serif" font-size="14.00">updated_at :datetime</text>
</g>
<!-- ValuePropositionCategory&#45;&gt;ValueProposition -->
<g id="edge28" class="edge"><title>ValuePropositionCategory&#45;&gt;ValueProposition</title>
<path fill="none" stroke="#8e6f48" d="M753.626,-401.716C749.505,-376.533 744.594,-346.522 740.119,-319.172"/>
<ellipse fill="none" stroke="#8e6f48" cx="754.32" cy="-405.954" rx="4.00001" ry="4.00001"/>
<polygon fill="#8e6f48" stroke="#8e6f48" points="740.107,-319.098 742.933,-308.503 739.3,-314.164 738.492,-309.23 738.492,-309.23 738.492,-309.23 739.3,-314.164 734.051,-309.956 740.107,-319.098 740.107,-319.098"/>
</g>
<!-- ActiveRecord::Base -->
<g id="node15" class="node"><title>ActiveRecord::Base</title>
<ellipse fill="none" stroke="black" cx="615" cy="-647" rx="80.9821" ry="18"/>
<text text-anchor="middle" x="615" y="-642.8" font-family="Times,serif" font-size="14.00">ActiveRecord::Base</text>
</g>
<!-- ActiveRecord::Base&#45;&gt;Bookmark -->
<g id="edge1" class="edge"><title>ActiveRecord::Base&#45;&gt;Bookmark</title>
<path fill="none" stroke="black" d="M582.471,-630.432C565.442,-622.982 544.017,-614.683 524,-610 476.992,-599.002 124.622,-608.645 91,-574 -29.9929,-449.326 20.2266,-216.226 49.954,-115.005"/>
</g>
<!-- ActiveRecord::Base&#45;&gt;Comment -->
<g id="edge2" class="edge"><title>ActiveRecord::Base&#45;&gt;Comment</title>
<path fill="none" stroke="black" d="M581.994,-630.471C565.02,-623.126 543.788,-614.909 524,-610 453.045,-592.397 251.286,-622.964 197,-574 61.0401,-451.369 81.0006,-339.328 140,-166 145.26,-150.547 153.98,-135.619 163.7,-122.219"/>
</g>
<!-- ActiveRecord::Base&#45;&gt;Resource -->
<g id="edge12" class="edge"><title>ActiveRecord::Base&#45;&gt;Resource</title>
<path fill="none" stroke="black" d="M577.77,-630.956C529.142,-611.214 449.503,-578.529 444,-574 441.171,-571.671 438.405,-569.21 435.706,-566.642"/>
</g>
<!-- ActiveRecord::Base&#45;&gt;ResourceFormat -->
<g id="edge13" class="edge"><title>ActiveRecord::Base&#45;&gt;ResourceFormat</title>
<path fill="none" stroke="black" d="M606.233,-628.927C592.499,-602.182 565.397,-549.405 545.224,-510.121"/>
</g>
<!-- ActiveRecord::Base&#45;&gt;Step -->
<g id="edge14" class="edge"><title>ActiveRecord::Base&#45;&gt;Step</title>
<path fill="none" stroke="black" d="M614.554,-628.684C613.214,-582.56 608.449,-452.949 595,-346 585.562,-270.944 568.831,-185.59 556.896,-129.056"/>
</g>
<!-- ActiveRecord::Base&#45;&gt;Suggestion -->
<g id="edge15" class="edge"><title>ActiveRecord::Base&#45;&gt;Suggestion</title>
<path fill="none" stroke="black" d="M689.984,-639.973C748.078,-632.218 828.292,-614.494 887,-574 910.446,-557.828 929.487,-532.556 943.203,-510.009"/>
</g>
<!-- ActiveRecord::Base&#45;&gt;Tag -->
<g id="edge17" class="edge"><title>ActiveRecord::Base&#45;&gt;Tag</title>
<path fill="none" stroke="black" d="M695.583,-644.369C807.013,-640.216 999.388,-625.561 1043,-574 1114.02,-490.035 1051.84,-350.613 1012.84,-281.1"/>
</g>
<!-- ActiveRecord::Base&#45;&gt;Tagging -->
<g id="edge18" class="edge"><title>ActiveRecord::Base&#45;&gt;Tagging</title>
<path fill="none" stroke="black" d="M696.239,-645.373C814.573,-642.54 1025.46,-629.593 1073,-574 1190.89,-436.131 1124.59,-336.26 1062,-166 1055.34,-147.872 1044.24,-130.262 1032.6,-115.001"/>
</g>
<!-- ActiveRecord::Base&#45;&gt;Upvote -->
<g id="edge19" class="edge"><title>ActiveRecord::Base&#45;&gt;Upvote</title>
<path fill="none" stroke="black" d="M581.046,-630.472C564.194,-623.31 543.348,-615.251 524,-610 473.437,-596.278 325.101,-613.775 291,-574 225.044,-497.07 271.127,-445.366 291,-346 294.399,-329.003 300.518,-326.444 306,-310 328.118,-243.658 346.808,-164.931 357.714,-115.215"/>
</g>
<!-- ActiveRecord::Base&#45;&gt;User -->
<g id="edge23" class="edge"><title>ActiveRecord::Base&#45;&gt;User</title>
<path fill="none" stroke="black" d="M581.516,-630.497C564.6,-623.25 543.561,-615.112 524,-610 466.288,-594.918 299.533,-616.816 258,-574 188.58,-502.436 196.105,-377.599 208.874,-302.195"/>
</g>
<!-- ActiveRecord::Base&#45;&gt;ValueProposition -->
<g id="edge26" class="edge"><title>ActiveRecord::Base&#45;&gt;ValueProposition</title>
<path fill="none" stroke="black" d="M618.365,-628.839C621.218,-614.255 625.407,-592.76 629,-574 648.397,-472.721 638.526,-443.535 672,-346 676.204,-333.751 681.597,-321.16 687.358,-309.11"/>
</g>
<!-- ActiveRecord::Base&#45;&gt;ValuePropositionAssociation -->
<g id="edge27" class="edge"><title>ActiveRecord::Base&#45;&gt;ValuePropositionAssociation</title>
<path fill="none" stroke="black" d="M678.085,-635.567C741.238,-623.687 831.978,-602.211 853,-574 907.176,-501.299 891.051,-248.751 854,-166 845.318,-146.61 830.813,-129.431 815.072,-115.02"/>
</g>
<!-- ActiveRecord::Base&#45;&gt;ValuePropositionCategory -->
<g id="edge29" class="edge"><title>ActiveRecord::Base&#45;&gt;ValuePropositionCategory</title>
<path fill="none" stroke="black" d="M628.658,-628.927C650.055,-602.182 692.276,-549.405 723.703,-510.121"/>
</g>
</g>
</svg>
