<?xml version="1.0" encoding="UTF-8" standalone="no"?>
<!DOCTYPE svg PUBLIC "-//W3C//DTD SVG 1.1//EN"
 "http://www.w3.org/Graphics/SVG/1.1/DTD/svg11.dtd">
<!-- Generated by graphviz version 2.36.0 (20140111.2315)
 -->
<!-- Title: models_diagram Pages: 1 -->
<svg width="966pt" height="298pt"
 viewBox="0.00 0.00 966.10 298.00" xmlns="http://www.w3.org/2000/svg" xmlns:xlink="http://www.w3.org/1999/xlink">
<g id="graph0" class="graph" transform="scale(1 1) rotate(0) translate(4 294)">
<title>models_diagram</title>
<polygon fill="white" stroke="none" points="-4,4 -4,-294 962.095,-294 962.095,4 -4,4"/>
<!-- _diagram_info -->
<g id="node1" class="node"><title>_diagram_info</title>
<text text-anchor="start" x="194.312" y="-275.1" font-family="Times,serif" font-size="13.00">Models diagram</text>
<text text-anchor="start" x="194.312" y="-262.1" font-family="Times,serif" font-size="13.00">Date: Mar 17 2014 &#45; 22:05</text>
<text text-anchor="start" x="194.312" y="-249.1" font-family="Times,serif" font-size="13.00">Migration version: 20140225165907</text>
<text text-anchor="start" x="194.312" y="-236.1" font-family="Times,serif" font-size="13.00">Generated by RailRoady 1.1.1</text>
<text text-anchor="start" x="194.312" y="-223.1" font-family="Times,serif" font-size="13.00">http://railroady.prestonlee.com</text>
</g>
<!-- Bookmark -->
<g id="node2" class="node"><title>Bookmark</title>
<ellipse fill="none" stroke="black" cx="47" cy="-18" rx="47.162" ry="18"/>
<text text-anchor="middle" x="47" y="-13.8" font-family="Times,serif" font-size="14.00">Bookmark</text>
</g>
<!-- Comment -->
<g id="node3" class="node"><title>Comment</title>
<ellipse fill="none" stroke="black" cx="157" cy="-18" rx="44.4828" ry="18"/>
<text text-anchor="middle" x="157" y="-13.8" font-family="Times,serif" font-size="14.00">Comment</text>
</g>
<!-- Resource -->
<g id="node4" class="node"><title>Resource</title>
<ellipse fill="none" stroke="black" cx="266" cy="-162" rx="43.0161" ry="18"/>
<text text-anchor="middle" x="266" y="-157.8" font-family="Times,serif" font-size="14.00">Resource</text>
</g>
<!-- Resource&#45;&gt;Bookmark -->
<g id="edge6" class="edge"><title>Resource&#45;&gt;Bookmark</title>
<path fill="none" stroke="#c7bdc0" d="M220.748,-151.042C190.569,-142.888 151.069,-129.186 121,-108 96.7834,-90.9373 75.9178,-64.0119 62.5745,-44.2413"/>
<ellipse fill="none" stroke="#c7bdc0" cx="224.732" cy="-152.085" rx="4.00001" ry="4.00001"/>
<polygon fill="#c7bdc0" stroke="#c7bdc0" points="62.4718,-44.0846 60.7512,-33.2545 59.73,-39.9034 56.9881,-35.7222 56.9881,-35.7222 56.9881,-35.7222 59.73,-39.9034 53.225,-38.1898 62.4718,-44.0846 62.4718,-44.0846"/>
</g>
<!-- Resource&#45;&gt;Comment -->
<g id="edge9" class="edge"><title>Resource&#45;&gt;Comment</title>
<path fill="none" stroke="#9d2b8e" d="M248.511,-138.216C228.636,-112.324 196.314,-70.2162 175.88,-43.5954"/>
<ellipse fill="none" stroke="#9d2b8e" cx="251.061" cy="-141.538" rx="4.00002" ry="4.00002"/>
<polygon fill="#9d2b8e" stroke="#9d2b8e" points="175.783,-43.4691 173.263,-32.7966 172.738,-39.5029 169.694,-35.5366 169.694,-35.5366 169.694,-35.5366 172.738,-39.5029 166.124,-38.2767 175.783,-43.4691 175.783,-43.4691"/>
</g>
<!-- Step -->
<g id="node6" class="node"><title>Step</title>
<ellipse fill="none" stroke="black" cx="482" cy="-18" rx="27" ry="18"/>
<text text-anchor="middle" x="482" y="-13.8" font-family="Times,serif" font-size="14.00">Step</text>
</g>
<!-- Resource&#45;&gt;Step -->
<g id="edge8" class="edge"><title>Resource&#45;&gt;Step</title>
<path fill="none" stroke="#f6cabc" d="M296.865,-140.709C339.148,-112.912 414.423,-63.4255 454.734,-36.9251"/>
<polygon fill="#f6cabc" stroke="#f6cabc" points="296.658,-140.845 285.83,-142.578 292.48,-143.592 288.302,-146.338 288.302,-146.338 288.302,-146.338 292.48,-143.592 290.774,-150.099 296.658,-140.845 296.658,-140.845"/>
<polygon fill="#f6cabc" stroke="#f6cabc" points="454.894,-36.8195 465.722,-35.0863 459.072,-34.0728 463.25,-31.3261 463.25,-31.3261 463.25,-31.3261 459.072,-34.0728 460.778,-27.5659 454.894,-36.8195 454.894,-36.8195"/>
</g>
<!-- Tag -->
<g id="node8" class="node"><title>Tag</title>
<ellipse fill="none" stroke="black" cx="889" cy="-90" rx="27" ry="18"/>
<text text-anchor="middle" x="889" y="-85.8" font-family="Times,serif" font-size="14.00">Tag</text>
</g>
<!-- Resource&#45;&gt;Tag -->
<g id="edge11" class="edge"><title>Resource&#45;&gt;Tag</title>
<path fill="none" stroke="#5d1790" d="M306.99,-146.662C310.685,-145.655 314.393,-144.745 318,-144 489.335,-108.595 535.803,-124.271 710,-108 759.222,-103.402 816.046,-97.9874 852.23,-94.5258"/>
<polygon fill="#5d1790" stroke="#5d1790" points="306.91,-146.686 296.046,-145.193 302.114,-148.098 297.317,-149.51 297.317,-149.51 297.317,-149.51 302.114,-148.098 298.588,-153.826 306.91,-146.686 306.91,-146.686"/>
<polygon fill="#5d1790" stroke="#5d1790" points="852.361,-94.5134 862.744,-98.0399 857.338,-94.0369 862.315,-93.5604 862.315,-93.5604 862.315,-93.5604 857.338,-94.0369 861.886,-89.0809 852.361,-94.5134 852.361,-94.5134"/>
</g>
<!-- Tagging -->
<g id="node9" class="node"><title>Tagging</title>
<ellipse fill="none" stroke="black" cx="889" cy="-18" rx="38.4411" ry="18"/>
<text text-anchor="middle" x="889" y="-13.8" font-family="Times,serif" font-size="14.00">Tagging</text>
</g>
<!-- Resource&#45;&gt;Tagging -->
<g id="edge10" class="edge"><title>Resource&#45;&gt;Tagging</title>
<path fill="none" stroke="#7dd40f" d="M306.029,-147.563C310.06,-146.316 314.102,-145.106 318,-144 383.54,-125.401 402.399,-129.635 467,-108 505.128,-95.2311 511.381,-83.1958 550,-72 577.627,-63.991 756.541,-37.8971 842.728,-25.5671"/>
<ellipse fill="none" stroke="#7dd40f" cx="302.148" cy="-148.788" rx="4.00001" ry="4.00001"/>
<polygon fill="#7dd40f" stroke="#7dd40f" points="842.863,-25.5479 853.398,-28.5886 847.812,-24.8409 852.762,-24.1338 852.762,-24.1338 852.762,-24.1338 847.812,-24.8409 852.126,-19.679 842.863,-25.5479 842.863,-25.5479"/>
</g>
<!-- Upvote -->
<g id="node10" class="node"><title>Upvote</title>
<ellipse fill="none" stroke="black" cx="256" cy="-18" rx="36.2112" ry="18"/>
<text text-anchor="middle" x="256" y="-13.8" font-family="Times,serif" font-size="14.00">Upvote</text>
</g>
<!-- Resource&#45;&gt;Upvote -->
<g id="edge5" class="edge"><title>Resource&#45;&gt;Upvote</title>
<path fill="none" stroke="#d09872" d="M266.287,-135.718C266.28,-117.879 265.851,-93.4369 264,-72 263.268,-63.5256 262.039,-54.346 260.761,-46.0451"/>
<ellipse fill="none" stroke="#d09872" cx="266.273" cy="-139.903" rx="4" ry="4"/>
<polygon fill="#d09872" stroke="#d09872" points="260.752,-45.9907 263.592,-35.3988 259.951,-41.0553 259.15,-36.1199 259.15,-36.1199 259.15,-36.1199 259.951,-41.0553 254.708,-36.841 260.752,-45.9907 260.752,-45.9907"/>
</g>
<!-- User -->
<g id="node11" class="node"><title>User</title>
<ellipse fill="none" stroke="black" cx="157" cy="-90" rx="27" ry="18"/>
<text text-anchor="middle" x="157" y="-85.8" font-family="Times,serif" font-size="14.00">User</text>
</g>
<!-- Resource&#45;&gt;User -->
<g id="edge7" class="edge"><title>Resource&#45;&gt;User</title>
<path fill="none" stroke="#821b7f" d="M234.785,-140.953C218.899,-130.752 199.764,-118.463 184.447,-108.627"/>
<polygon fill="#821b7f" stroke="#821b7f" points="235.001,-141.092 240.983,-150.282 239.208,-143.794 243.415,-146.496 243.415,-146.496 243.415,-146.496 239.208,-143.794 245.847,-142.71 235.001,-141.092 235.001,-141.092"/>
<polygon fill="#821b7f" stroke="#821b7f" points="184.338,-108.557 178.356,-99.3667 180.131,-105.855 175.924,-103.153 175.924,-103.153 175.924,-103.153 180.131,-105.855 173.492,-106.94 184.338,-108.557 184.338,-108.557"/>
</g>
<!-- ValueProposition -->
<g id="node12" class="node"><title>ValueProposition</title>
<ellipse fill="none" stroke="black" cx="630" cy="-90" rx="71.0398" ry="18"/>
<text text-anchor="middle" x="630" y="-85.8" font-family="Times,serif" font-size="14.00">ValueProposition</text>
</g>
<!-- Resource&#45;&gt;ValueProposition -->
<g id="edge4" class="edge"><title>Resource&#45;&gt;ValueProposition</title>
<path fill="none" stroke="#24e627" d="M307.519,-146.782C311.045,-145.771 314.572,-144.827 318,-144 417.303,-120.054 444.452,-126.02 545,-108 552.027,-106.741 559.368,-105.364 566.666,-103.957"/>
<polygon fill="#24e627" stroke="#24e627" points="307.242,-146.865 296.367,-145.455 302.456,-148.314 297.671,-149.762 297.671,-149.762 297.671,-149.762 302.456,-148.314 298.974,-154.069 307.242,-146.865 307.242,-146.865"/>
<polygon fill="#24e627" stroke="#24e627" points="566.743,-103.943 577.419,-106.445 571.65,-102.986 576.558,-102.028 576.558,-102.028 576.558,-102.028 571.65,-102.986 575.696,-97.6116 566.743,-103.943 566.743,-103.943"/>
</g>
<!-- ValuePropositionAssociation -->
<g id="node13" class="node"><title>ValuePropositionAssociation</title>
<ellipse fill="none" stroke="black" cx="640" cy="-18" rx="112.175" ry="18"/>
<text text-anchor="middle" x="640" y="-13.8" font-family="Times,serif" font-size="14.00">ValuePropositionAssociation</text>
</g>
<!-- Resource&#45;&gt;ValuePropositionAssociation -->
<g id="edge3" class="edge"><title>Resource&#45;&gt;ValuePropositionAssociation</title>
<path fill="none" stroke="#127457" d="M304.756,-146.285C372.713,-120.483 513.326,-67.0954 589.054,-38.3431"/>
<ellipse fill="none" stroke="#127457" cx="300.664" cy="-147.839" rx="4.00001" ry="4.00001"/>
<polygon fill="#127457" stroke="#127457" points="589.055,-38.3429 600.001,-39.0002 593.729,-36.568 598.404,-34.7932 598.404,-34.7932 598.404,-34.7932 593.729,-36.568 596.806,-30.5863 589.055,-38.3429 589.055,-38.3429"/>
</g>
<!-- ResourceFormat -->
<g id="node5" class="node"><title>ResourceFormat</title>
<ellipse fill="none" stroke="black" cx="396" cy="-162" rx="68.3347" ry="18"/>
<text text-anchor="middle" x="396" y="-157.8" font-family="Times,serif" font-size="14.00">ResourceFormat</text>
</g>
<!-- Suggestion -->
<g id="node7" class="node"><title>Suggestion</title>
<ellipse fill="none" stroke="black" cx="870" cy="-162" rx="49.1222" ry="18"/>
<text text-anchor="middle" x="870" y="-157.8" font-family="Times,serif" font-size="14.00">Suggestion</text>
</g>
<!-- Tag&#45;&gt;Tagging -->
<g id="edge16" class="edge"><title>Tag&#45;&gt;Tagging</title>
<path fill="none" stroke="#36319c" d="M889,-63.6398C889,-58.0629 889,-52.1319 889,-46.4761"/>
<ellipse fill="none" stroke="#36319c" cx="889" cy="-67.6966" rx="4" ry="4"/>
<polygon fill="#36319c" stroke="#36319c" points="889,-46.1043 893.5,-36.1043 889,-41.1043 889,-36.1043 889,-36.1043 889,-36.1043 889,-41.1043 884.5,-36.1044 889,-46.1043 889,-46.1043"/>
</g>
<!-- User&#45;&gt;Bookmark -->
<g id="edge21" class="edge"><title>User&#45;&gt;Bookmark</title>
<path fill="none" stroke="#f7eb11" d="M130.838,-72.3516C115.264,-62.441 95.3888,-49.7929 78.8989,-39.2993"/>
<ellipse fill="none" stroke="#f7eb11" cx="134.465" cy="-74.6594" rx="4.00002" ry="4.00002"/>
<polygon fill="#f7eb11" stroke="#f7eb11" points="78.5717,-39.0911 72.551,-29.9258 74.3533,-36.4067 70.135,-33.7223 70.135,-33.7223 70.135,-33.7223 74.3533,-36.4067 67.7191,-37.5188 78.5717,-39.0911 78.5717,-39.0911"/>
</g>
<!-- User&#45;&gt;Comment -->
<g id="edge22" class="edge"><title>User&#45;&gt;Comment</title>
<path fill="none" stroke="#20c7ba" d="M157,-63.6398C157,-58.0629 157,-52.1319 157,-46.4761"/>
<ellipse fill="none" stroke="#20c7ba" cx="157" cy="-67.6966" rx="4" ry="4"/>
<polygon fill="#20c7ba" stroke="#20c7ba" points="157,-46.1043 161.5,-36.1043 157,-41.1043 157,-36.1043 157,-36.1043 157,-36.1043 157,-41.1043 152.5,-36.1044 157,-46.1043 157,-46.1043"/>
</g>
<!-- User&#45;&gt;Upvote -->
<g id="edge20" class="edge"><title>User&#45;&gt;Upvote</title>
<path fill="none" stroke="#d009f4" d="M181.975,-71.341C195.798,-61.5669 213.036,-49.3785 227.399,-39.2231"/>
<ellipse fill="none" stroke="#d009f4" cx="178.424" cy="-73.8516" rx="4.00002" ry="4.00002"/>
<polygon fill="#d009f4" stroke="#d009f4" points="227.749,-38.9758 238.512,-36.8767 231.831,-36.0891 235.914,-33.2024 235.914,-33.2024 235.914,-33.2024 231.831,-36.0891 233.316,-29.5281 227.749,-38.9758 227.749,-38.9758"/>
</g>
<!-- ValueProposition&#45;&gt;Step -->
<g id="edge25" class="edge"><title>ValueProposition&#45;&gt;Step</title>
<path fill="none" stroke="#767e35" d="M590.622,-70.3751C566.196,-58.8223 535.273,-44.1967 512.673,-33.5076"/>
<ellipse fill="none" stroke="#767e35" cx="594.27" cy="-72.1008" rx="4.00002" ry="4.00002"/>
<polygon fill="#767e35" stroke="#767e35" points="512.58,-33.4636 505.464,-25.12 508.06,-31.3258 503.54,-29.188 503.54,-29.188 503.54,-29.188 508.06,-31.3258 501.616,-33.2559 512.58,-33.4636 512.58,-33.4636"/>
</g>
<!-- ValueProposition&#45;&gt;ValuePropositionAssociation -->
<g id="edge24" class="edge"><title>ValueProposition&#45;&gt;ValuePropositionAssociation</title>
<path fill="none" stroke="#80d2d3" d="M633.623,-63.6398C634.44,-57.92 635.31,-51.8276 636.137,-46.0416"/>
<ellipse fill="none" stroke="#80d2d3" cx="633.038" cy="-67.7368" rx="4.00001" ry="4.00001"/>
<polygon fill="#80d2d3" stroke="#80d2d3" points="636.142,-46.0038 642.011,-36.7408 636.849,-41.0541 637.557,-36.1043 637.557,-36.1043 637.557,-36.1043 636.849,-41.0541 633.102,-35.4679 636.142,-46.0038 636.142,-46.0038"/>
</g>
<!-- ValuePropositionCategory -->
<g id="node14" class="node"><title>ValuePropositionCategory</title>
<ellipse fill="none" stroke="black" cx="662" cy="-162" rx="103.164" ry="18"/>
<text text-anchor="middle" x="662" y="-157.8" font-family="Times,serif" font-size="14.00">ValuePropositionCategory</text>
</g>
<!-- ValuePropositionCategory&#45;&gt;ValueProposition -->
<g id="edge28" class="edge"><title>ValuePropositionCategory&#45;&gt;ValueProposition</title>
<path fill="none" stroke="#5918f2" d="M650.662,-136.199C647.873,-130.097 644.877,-123.543 642.055,-117.37"/>
<ellipse fill="none" stroke="#5918f2" cx="652.427" cy="-140.059" rx="4.00002" ry="4.00002"/>
<polygon fill="#5918f2" stroke="#5918f2" points="641.977,-117.199 641.912,-106.233 639.898,-112.652 637.819,-108.104 637.819,-108.104 637.819,-108.104 639.898,-112.652 633.726,-109.975 641.977,-117.199 641.977,-117.199"/>
</g>
<!-- ActiveRecord::Base -->
<g id="node15" class="node"><title>ActiveRecord::Base</title>
<ellipse fill="none" stroke="black" cx="493" cy="-253" rx="80.9821" ry="18"/>
<text text-anchor="middle" x="493" y="-248.8" font-family="Times,serif" font-size="14.00">ActiveRecord::Base</text>
</g>
<!-- ActiveRecord::Base&#45;&gt;Bookmark -->
<g id="edge1" class="edge"><title>ActiveRecord::Base&#45;&gt;Bookmark</title>
<path fill="none" stroke="black" d="M459.532,-236.433C442.62,-229.171 421.58,-221.038 402,-216 279.635,-184.515 224.234,-251.413 120,-180 70.5029,-146.088 54.0317,-70.0771 49.0109,-36.0439"/>
</g>
<!-- ActiveRecord::Base&#45;&gt;Comment -->
<g id="edge2" class="edge"><title>ActiveRecord::Base&#45;&gt;Comment</title>
<path fill="none" stroke="black" d="M459.489,-236.597C442.567,-229.375 421.53,-221.229 402,-216 296.111,-187.65 247.134,-243.807 158,-180 116.743,-150.466 106.087,-120.498 121,-72 125.185,-58.3911 134.185,-45.1411 142.139,-35.2933"/>
</g>
<!-- ActiveRecord::Base&#45;&gt;Resource -->
<g id="edge12" class="edge"><title>ActiveRecord::Base&#45;&gt;Resource</title>
<path fill="none" stroke="black" d="M454.94,-236.893C438.644,-230.438 419.396,-222.831 402,-216 365.793,-201.783 324.11,-185.56 296.535,-174.848"/>
</g>
<!-- ActiveRecord::Base&#45;&gt;ResourceFormat -->
<g id="edge13" class="edge"><title>ActiveRecord::Base&#45;&gt;ResourceFormat</title>
<path fill="none" stroke="black" d="M474.755,-235.26C457.413,-219.348 431.478,-195.552 414.163,-179.665"/>
</g>
<!-- ActiveRecord::Base&#45;&gt;Step -->
<g id="edge14" class="edge"><title>ActiveRecord::Base&#45;&gt;Step</title>
<path fill="none" stroke="black" d="M492.191,-234.867C490.157,-191.778 484.846,-79.2739 482.81,-36.1582"/>
</g>
<!-- ActiveRecord::Base&#45;&gt;Suggestion -->
<g id="edge15" class="edge"><title>ActiveRecord::Base&#45;&gt;Suggestion</title>
<path fill="none" stroke="black" d="M548.739,-239.893C611.634,-226.075 716.919,-202.473 807,-180 815.134,-177.971 823.83,-175.694 832.082,-173.483"/>
</g>
<!-- ActiveRecord::Base&#45;&gt;Tag -->
<g id="edge17" class="edge"><title>ActiveRecord::Base&#45;&gt;Tag</title>
<path fill="none" stroke="black" d="M573.47,-250.623C686.485,-246.793 883.44,-232.542 928,-180 947.095,-157.485 921.859,-124.162 903.977,-105.33"/>
</g>
<!-- ActiveRecord::Base&#45;&gt;Tagging -->
<g id="edge18" class="edge"><title>ActiveRecord::Base&#45;&gt;Tagging</title>
<path fill="none" stroke="black" d="M574.151,-251.18C691.126,-248.082 898.256,-234.779 945,-180 982.267,-136.327 930.892,-66.3868 903.821,-35.0712"/>
</g>
<!-- ActiveRecord::Base&#45;&gt;Upvote -->
<g id="edge19" class="edge"><title>ActiveRecord::Base&#45;&gt;Upvote</title>
<path fill="none" stroke="black" d="M458.531,-236.594C441.736,-229.546 421.088,-221.55 402,-216 320.309,-192.248 268.205,-245.569 214,-180 178.294,-136.808 220.824,-66.6196 243.52,-35.1558"/>
</g>
<!-- ActiveRecord::Base&#45;&gt;User -->
<g id="edge23" class="edge"><title>ActiveRecord::Base&#45;&gt;User</title>
<path fill="none" stroke="black" d="M459.027,-236.541C442.171,-229.395 421.327,-221.33 402,-216 306.065,-189.543 254.862,-246.693 181,-180 160.808,-161.768 156.85,-128.503 156.469,-108.211"/>
</g>
<!-- ActiveRecord::Base&#45;&gt;ValueProposition -->
<g id="edge26" class="edge"><title>ActiveRecord::Base&#45;&gt;ValueProposition</title>
<path fill="none" stroke="black" d="M499.03,-234.667C507.608,-211.875 525.102,-171.507 550,-144 563.975,-128.56 583.376,-115.562 599.573,-106.302"/>
</g>
<!-- ActiveRecord::Base&#45;&gt;ValuePropositionAssociation -->
<g id="edge27" class="edge"><title>ActiveRecord::Base&#45;&gt;ValuePropositionAssociation</title>
<path fill="none" stroke="black" d="M562.933,-243.851C637.495,-233.554 748.334,-213.071 774,-180 816.028,-125.845 723.511,-64.151 671.801,-35.3819"/>
</g>
<!-- ActiveRecord::Base&#45;&gt;ValuePropositionCategory -->
<g id="edge29" class="edge"><title>ActiveRecord::Base&#45;&gt;ValuePropositionCategory</title>
<path fill="none" stroke="black" d="M523.214,-236.089C553.69,-220.039 600.505,-195.385 631.192,-179.225"/>
</g>
</g>
</svg>
